<svg width="110" height="73" viewBox="0 0 110 73" fill="none" xmlns="http://www.w3.org/2000/svg">
<g filter="url(#filter0_d_1:117)">
<path fill-rule="evenodd" clip-rule="evenodd" d="M34.5 20C26.4919 20 20 26.4919 20 34.5C20 42.5081 26.4919 49 34.5 49H48.7871L55.6667 53L61.3497 49H75.5C83.5081 49 90 42.5081 90 34.5C90 26.4919 83.5081 20 75.5 20H34.5Z" fill="#0AC690"/>
</g>
<path d="M36.5696 40H38.9506L43.4783 31.0032V29.0909H35.8239V30.9766H41.092V31.0511L36.5696 40ZM48.552 40H50.8212V35.0888C50.8212 34.1832 51.3965 33.5813 52.1529 33.5813C52.8986 33.5813 53.3993 34.0927 53.3993 34.897V40H55.5993V35.0036C55.5993 34.1566 56.084 33.5813 56.9096 33.5813C57.6341 33.5813 58.1774 34.0341 58.1774 34.945V40H60.4412V34.4975C60.4412 32.7237 59.3865 31.7116 57.8631 31.7116C56.6646 31.7116 55.7324 32.3242 55.3968 33.2617H55.3116C55.0506 32.3136 54.2143 31.7116 53.0904 31.7116C51.9877 31.7116 51.1515 32.2976 50.8105 33.2617H50.7147V31.8182H48.552V40ZM62.2337 40H64.5028V31.8182H62.2337V40ZM63.3736 30.7635C64.0501 30.7635 64.604 30.2468 64.604 29.6129C64.604 28.9844 64.0501 28.4677 63.3736 28.4677C62.7024 28.4677 62.1484 28.9844 62.1484 29.6129C62.1484 30.2468 62.7024 30.7635 63.3736 30.7635ZM68.5898 35.2699C68.5951 34.2152 69.2236 33.5973 70.1398 33.5973C71.0507 33.5973 71.5993 34.1939 71.594 35.1953V40H73.8632V34.7905C73.8632 32.8835 72.7446 31.7116 71.04 31.7116C69.8256 31.7116 68.9466 32.3082 68.5791 33.2617H68.4832V31.8182H66.3206V40H68.5898V35.2699Z" fill="white"/>
<defs>
<filter id="filter0_d_1:117" x="0" y="0" width="110" height="73" filterUnits="userSpaceOnUse" color-interpolation-filters="sRGB">
<feFlood flood-opacity="0" result="BackgroundImageFix"/>
<feColorMatrix in="SourceAlpha" type="matrix" values="0 0 0 0 0 0 0 0 0 0 0 0 0 0 0 0 0 0 127 0" result="hardAlpha"/>
<feOffset/>
<feGaussianBlur stdDeviation="10"/>
<feColorMatrix type="matrix" values="0 0 0 0 0 0 0 0 0 0 0 0 0 0 0 0 0 0 0.2 0"/>
<feBlend mode="normal" in2="BackgroundImageFix" result="effect1_dropShadow_1:117"/>
<feBlend mode="normal" in="SourceGraphic" in2="effect1_dropShadow_1:117" result="shape"/>
</filter>
</defs>
</svg>
