<svg width="190" height="166" viewBox="0 0 190 166" fill="none" xmlns="http://www.w3.org/2000/svg">
<path d="M28.5 35C28.5 35 44.2489 32.5222 53.5 28.5C76.5 18.5 81.9985 5.3843 106 10C119 12.5 123.29 21.4008 124.5 35C125.301 44 119.586 52.2575 121.5 58C124.5 67 133.227 62.7396 143.5 60C151 58 155.5 58 160 60C180.384 69.0594 173.5 115.5 173.5 115.5" stroke="#0AC690" stroke-width="4" stroke-linecap="round" stroke-linejoin="round"/>
<circle cx="28" cy="35" r="28" fill="#0AC690" fill-opacity="0.19"/>
<path fill-rule="evenodd" clip-rule="evenodd" d="M34 35C34 38.3137 31.3137 41 28 41C24.6863 41 22 38.3137 22 35C22 31.6863 24.6863 29 28 29C31.3137 29 34 31.6863 34 35ZM28 39C30.2091 39 32 37.2091 32 35C32 32.7909 30.2091 31 28 31C25.7909 31 24 32.7909 24 35C24 37.2091 25.7909 39 28 39Z" fill="#FDFDFD"/>
<rect opacity="0.01" x="8" width="40" height="40" fill="white"/>
<path d="M28.0217 38.728C30.3249 38.728 32.192 36.861 32.192 34.5578C32.192 32.2547 30.3249 30.3876 28.0217 30.3876C25.7186 30.3876 23.8516 32.2547 23.8516 34.5578C23.8516 36.861 25.7186 38.728 28.0217 38.728Z" fill="#3E4958"/>
<path fill-rule="evenodd" clip-rule="evenodd" d="M28.0213 31.4135C26.2847 31.4135 24.8768 32.8213 24.8768 34.558C24.8768 36.2947 26.2847 37.7025 28.0213 37.7025C29.758 37.7025 31.1659 36.2947 31.1659 34.558C31.1659 32.8213 29.758 31.4135 28.0213 31.4135ZM22.8255 34.558C22.8255 31.6884 25.1518 29.3621 28.0213 29.3621C30.8909 29.3621 33.2172 31.6884 33.2172 34.558C33.2172 37.4276 30.8909 39.7538 28.0213 39.7538C25.1518 39.7538 22.8255 37.4276 22.8255 34.558Z" fill="#FDFDFD"/>
<path fill-rule="evenodd" clip-rule="evenodd" d="M27.0104 21.9514H28.8704V33.8215H27.0104V21.9514Z" fill="#3E4958"/>
<path d="M28.0222 22.4644C34.0103 22.4644 38.8647 17.6101 38.8647 11.6219C38.8647 5.63377 34.0103 0.779419 28.0222 0.779419C22.034 0.779419 17.1797 5.63377 17.1797 11.6219C17.1797 17.6101 22.034 22.4644 28.0222 22.4644Z" fill="#0AC690"/>
<path fill-rule="evenodd" clip-rule="evenodd" d="M28.022 1.2921C22.317 1.2921 17.6923 5.91685 17.6923 11.6218C17.6923 17.3267 22.317 21.9515 28.022 21.9515C33.7269 21.9515 38.3516 17.3267 38.3516 11.6218C38.3516 5.91685 33.7269 1.2921 28.022 1.2921ZM16.6667 11.6218C16.6667 5.35046 21.7506 0.266518 28.022 0.266518C34.2933 0.266518 39.3773 5.35046 39.3773 11.6218C39.3773 17.8932 34.2933 22.9771 28.022 22.9771C21.7506 22.9771 16.6667 17.8932 16.6667 11.6218Z" fill="#0AC690"/>
<path d="M28.0223 14.9581C29.8648 14.9581 31.3585 13.4644 31.3585 11.622C31.3585 9.77945 29.8648 8.28581 28.0223 8.28581C26.1798 8.28581 24.6862 9.77945 24.6862 11.622C24.6862 13.4644 26.1798 14.9581 28.0223 14.9581Z" fill="#F9FFFF"/>
<g filter="url(#filter0_d_1:122)">
<path d="M184.165 116.232L184.048 114.373C183.941 112.698 183.415 111.072 182.47 109.688C180.737 107.162 178.205 106.145 174.475 106H171.525C167.805 106.145 165.263 107.162 163.539 109.688C162.595 111.072 162.069 112.698 161.962 114.373L161.845 116.232C161.767 117.432 161.786 118.642 161.913 119.842L161.942 120.113V150.343C162.02 152.105 162.341 153.025 162.906 154.477C163.948 156.877 166.12 157.952 171.973 157.981H174.047C179.899 157.952 182.071 156.867 183.113 154.477C183.678 153.025 183.99 152.105 184.077 150.343V120.123L184.106 119.852C184.214 118.652 184.233 117.442 184.165 116.232ZM181.974 121.488L180.679 128.07C180.591 128.515 180.513 128.961 180.445 129.406C174.709 128.186 171.252 128.06 165.448 129.406C165.38 128.961 165.302 128.515 165.214 128.07L163.919 121.488C163.637 120.065 164.406 118.642 165.76 118.109C167.551 117.403 169.626 117.093 172.401 117.016H173.472C176.248 117.093 178.332 117.413 180.114 118.119C181.487 118.642 182.256 120.065 181.974 121.488Z" fill="#F2F2F2"/>
<path d="M167.649 107.433L166.724 117.79H166.841L168.136 107.491C167.912 107.491 167.746 107.5 167.649 107.433Z" fill="#E7E7E7"/>
<path d="M178.351 107.433L179.276 117.79H179.159L177.874 107.491C178.088 107.491 178.254 107.5 178.351 107.433Z" fill="#E7E7E7"/>
<path d="M181.331 148.572C181.331 149.733 181.204 150.672 180.912 151.427C180.893 151.35 180.854 151.273 180.805 151.195C180.698 151.466 180.581 151.718 180.464 151.96C180.075 152.725 179.383 153.286 178.565 153.557C177.28 153.973 176.072 154.128 174.407 154.244C173.988 154.273 173.579 154.283 173.161 154.283H172.888C172.479 154.283 172.07 154.273 171.671 154.244C169.996 154.128 168.788 153.973 167.493 153.557C166.675 153.296 165.993 152.725 165.594 151.96C165.467 151.718 165.36 151.466 165.243 151.185C165.204 151.244 165.175 151.302 165.146 151.369C164.844 150.624 164.708 149.704 164.708 148.572C164.708 148.078 164.737 147.575 164.786 147.072H181.243C181.311 147.585 181.331 148.078 181.331 148.572Z" fill="#4B545A"/>
<path d="M181.331 148.572C181.331 149.733 181.204 150.672 180.912 151.427C180.893 151.35 180.854 151.273 180.805 151.195C180.698 151.466 180.581 151.718 180.464 151.96C180.075 152.725 179.383 153.286 178.565 153.557C177.28 153.973 176.072 154.128 174.407 154.244C173.988 154.273 173.579 154.283 173.161 154.283H172.888C172.479 154.283 172.07 154.273 171.671 154.244C169.996 154.128 168.788 153.973 167.493 153.557C166.675 153.296 165.993 152.725 165.594 151.96C165.467 151.718 165.36 151.466 165.243 151.185C165.204 151.244 165.175 151.302 165.146 151.369C164.844 150.624 164.708 149.704 164.708 148.572C164.708 148.078 164.737 147.575 164.786 147.072H181.243C181.311 147.585 181.331 148.078 181.331 148.572Z" fill="#4388FC" fill-opacity="0.1"/>
<path d="M181.331 148.572C181.331 149.733 181.204 150.672 180.912 151.427C180.893 151.35 180.854 151.273 180.805 151.195C180.698 151.466 180.581 151.718 180.464 151.96C180.075 152.725 179.383 153.286 178.565 153.557C177.28 153.973 176.072 154.128 174.407 154.244C173.988 154.273 173.579 154.283 173.161 154.283H172.888C172.479 154.283 172.07 154.273 171.671 154.244C169.996 154.128 168.788 153.973 167.493 153.557C166.675 153.296 165.993 152.725 165.594 151.96C165.467 151.718 165.36 151.466 165.243 151.185C165.204 151.244 165.175 151.302 165.146 151.369C164.844 150.624 164.708 149.704 164.708 148.572C164.708 148.078 164.737 147.575 164.786 147.072H181.243C181.311 147.585 181.331 148.078 181.331 148.572Z" fill="url(#paint0_radial_1:122)" fill-opacity="0.77"/>
<path d="M165.078 144.545C165.058 145.435 165.039 146.355 165.02 147.371C165.02 147.449 165 147.526 164.961 147.594C164.796 147.904 164.562 148.01 164.192 147.942C163.656 147.778 163.384 147.284 163.364 146.413L162.838 122.088C162.838 122.068 162.838 122.049 162.838 122.03C162.848 122.039 162.858 122.059 162.867 122.078L163.15 122.62C163.208 122.736 163.257 122.862 163.286 122.998L164.085 127.179C164.649 130.141 164.951 132.764 164.99 135.223C165.195 138.989 165.146 141.563 165.078 144.545Z" fill="#4B545A"/>
<path d="M165.078 144.545C165.058 145.435 165.039 146.355 165.02 147.371C165.02 147.449 165 147.526 164.961 147.594C164.796 147.904 164.562 148.01 164.192 147.942C163.656 147.778 163.383 147.284 163.364 146.413L162.838 122.088C162.838 122.068 162.838 122.049 162.838 122.03C162.848 122.039 162.858 122.059 162.867 122.078L163.15 122.62C163.208 122.736 163.257 122.862 163.286 122.998L164.085 127.179C164.649 130.141 164.951 132.765 164.99 135.223C165.195 138.989 165.146 141.563 165.078 144.545Z" fill="#4388FC" fill-opacity="0.1"/>
<path d="M165.078 144.545C165.058 145.435 165.039 146.355 165.02 147.371C165.02 147.449 165 147.526 164.961 147.594C164.796 147.904 164.562 148.01 164.192 147.942C163.656 147.778 163.383 147.284 163.364 146.413L162.838 122.088C162.838 122.068 162.838 122.049 162.838 122.03C162.848 122.039 162.858 122.059 162.867 122.078L163.15 122.62C163.208 122.736 163.257 122.862 163.286 122.998L164.085 127.179C164.649 130.141 164.951 132.765 164.99 135.223C165.195 138.989 165.146 141.563 165.078 144.545Z" fill="url(#paint1_radial_1:122)" fill-opacity="0.77"/>
<path d="M163.16 136.801C163.792 137.15 164.26 137.275 165.088 137.372L165.029 135.891C164.289 135.494 163.744 135.107 163.101 134.459L163.16 136.801Z" fill="#4B545A"/>
<path d="M163.685 125.069L162.906 124.866L162.848 122.088C162.848 122.068 162.848 122.049 162.848 122.03C162.858 122.039 162.867 122.059 162.877 122.078L163.159 122.62C163.218 122.736 163.267 122.862 163.296 122.998L163.685 125.069Z" fill="#4B545A"/>
<path d="M180.932 144.545C180.951 145.436 180.971 146.355 180.99 147.372C180.99 147.449 181.01 147.527 181.049 147.594C181.214 147.904 181.448 148.011 181.818 147.943C182.354 147.778 182.626 147.285 182.646 146.413L183.172 122.088C183.172 122.069 183.172 122.049 183.172 122.03C183.162 122.04 183.152 122.059 183.142 122.078L182.86 122.62C182.802 122.737 182.753 122.862 182.724 122.998L181.915 127.199C181.351 130.161 181.049 132.784 181.01 135.243C180.805 138.989 180.864 141.564 180.932 144.545Z" fill="#4B545A"/>
<path d="M180.932 144.545C180.951 145.436 180.971 146.355 180.99 147.372C180.99 147.449 181.01 147.526 181.049 147.594C181.214 147.904 181.448 148.01 181.818 147.943C182.354 147.778 182.626 147.284 182.646 146.413L183.172 122.088C183.172 122.068 183.172 122.049 183.172 122.03C183.162 122.039 183.152 122.059 183.142 122.078L182.86 122.62C182.802 122.736 182.753 122.862 182.724 122.998L181.915 127.199C181.351 130.161 181.049 132.784 181.01 135.243C180.805 138.989 180.864 141.564 180.932 144.545Z" fill="#4388FC" fill-opacity="0.1"/>
<path d="M180.932 144.545C180.951 145.436 180.971 146.355 180.99 147.372C180.99 147.449 181.01 147.526 181.049 147.594C181.214 147.904 181.448 148.01 181.818 147.943C182.354 147.778 182.626 147.284 182.646 146.413L183.172 122.088C183.172 122.068 183.172 122.049 183.172 122.03C183.162 122.039 183.152 122.059 183.142 122.078L182.86 122.62C182.802 122.736 182.753 122.862 182.724 122.998L181.915 127.199C181.351 130.161 181.049 132.784 181.01 135.243C180.805 138.989 180.864 141.564 180.932 144.545Z" fill="url(#paint2_radial_1:122)" fill-opacity="0.77"/>
<path d="M182.85 136.811C182.217 137.159 181.75 137.285 180.922 137.382L180.981 135.901C181.721 135.504 182.266 135.117 182.909 134.468L182.85 136.811Z" fill="#4B545A"/>
<path d="M182.324 125.079L183.103 124.876L183.162 122.098C183.162 122.078 183.162 122.059 183.162 122.04C183.152 122.049 183.142 122.069 183.133 122.088L182.85 122.63C182.792 122.746 182.743 122.872 182.714 123.008L182.324 125.079Z" fill="#4B545A"/>
<path d="M163.169 123.424C163.228 123.656 163.218 123.791 163.169 124.014H162.361V123.424H163.169Z" fill="#594F4F"/>
<path d="M162.497 123.588L162.488 124.401C162.488 124.488 162.429 124.566 162.342 124.595L160.238 125.292C160.17 125.311 160.092 125.272 160.072 125.205C160.043 125.098 160.014 124.982 160.004 124.837C159.995 124.74 160.004 124.643 160.004 124.566C160.024 124.363 160.102 124.169 160.228 124.014C160.345 123.879 160.491 123.743 160.715 123.637C160.998 123.501 161.377 123.424 161.757 123.414C161.932 123.404 162.156 123.414 162.332 123.424C162.429 123.424 162.497 123.501 162.497 123.588Z" fill="#594F4F"/>
<path d="M182.831 123.424C182.772 123.657 182.782 123.792 182.831 124.015H183.639V123.424H182.831Z" fill="#594F4F"/>
<path d="M183.503 123.598L183.512 124.411C183.512 124.498 183.571 124.575 183.658 124.604L185.762 125.301C185.83 125.321 185.908 125.282 185.927 125.214C185.957 125.108 185.986 124.992 185.996 124.846C186.005 124.75 185.996 124.653 185.996 124.575C185.976 124.372 185.898 124.179 185.772 124.024C185.655 123.888 185.509 123.753 185.285 123.646C185.002 123.511 184.623 123.433 184.243 123.424C184.067 123.414 183.843 123.424 183.668 123.433C183.571 123.433 183.503 123.501 183.503 123.598Z" fill="#594F4F"/>
<path d="M166.918 107.781C164.864 109.03 163.705 110.491 163.111 112.815V111.653C163.111 110.966 163.345 110.307 163.792 109.785C164.669 108.778 165.526 108.12 166.918 107.781Z" fill="url(#paint3_linear_1:122)"/>
<path d="M166.918 107.781C164.864 109.03 163.705 110.491 163.111 112.815V111.653C163.111 110.966 163.345 110.307 163.792 109.785C164.669 108.778 165.526 108.12 166.918 107.781Z" fill="url(#paint4_linear_1:122)"/>
<path d="M163.121 112.805V111.653C163.121 110.966 163.355 110.307 163.803 109.785C164.669 108.778 165.526 108.12 166.919 107.781C164.864 109.03 163.705 110.482 163.121 112.805Z" fill="#D5E3F0"/>
<path d="M178.994 107.781C181.049 109.03 182.207 110.491 182.802 112.815V111.653C182.802 110.966 182.568 110.307 182.12 109.785C181.253 108.778 180.386 108.12 178.994 107.781Z" fill="url(#paint5_linear_1:122)"/>
<path d="M178.994 107.781C181.049 109.03 182.207 110.491 182.802 112.815V111.653C182.802 110.966 182.568 110.307 182.12 109.785C181.253 108.778 180.386 108.12 178.994 107.781Z" fill="url(#paint6_linear_1:122)"/>
<path d="M182.802 112.805V111.653C182.802 110.966 182.568 110.308 182.12 109.785C181.253 108.768 180.386 108.11 178.994 107.771C181.049 109.03 182.207 110.482 182.802 112.805Z" fill="#D5E3F0"/>
<path d="M166.695 157.477C164.601 156.935 163.539 155.958 162.897 154.486C162.731 154.06 162.585 153.673 162.458 153.305L162.653 153.363C163.306 153.567 163.832 154.041 164.104 154.66C164.542 155.667 165 156.103 166.325 156.78C166.587 156.916 166.734 157.197 166.695 157.477Z" fill="#D8394C"/>
<path d="M179.305 157.477C181.399 156.935 182.461 155.958 183.103 154.486C183.269 154.06 183.415 153.673 183.542 153.305L183.347 153.363C182.694 153.567 182.169 154.041 181.896 154.66C181.458 155.667 181 156.103 179.676 156.78C179.413 156.916 179.267 157.197 179.305 157.477Z" fill="#D8394C"/>
<path d="M173.482 119.377C176.326 119.455 178.351 119.794 180.036 120.462C180.766 120.752 181.331 121.333 181.604 122.059L180.425 128.021C180.357 128.38 180.289 128.747 180.231 129.106C177.163 128.467 174.923 128.196 172.791 128.196C170.629 128.196 168.408 128.476 165.653 129.106C165.594 128.747 165.536 128.38 165.458 128.021L164.289 122.059C164.562 121.333 165.127 120.752 165.857 120.462C167.551 119.794 169.567 119.465 172.411 119.377H173.482ZM173.482 119.126H172.411C169.635 119.203 167.551 119.523 165.769 120.22C164.932 120.549 164.309 121.226 164.036 122.03L165.224 128.07C165.312 128.515 165.39 128.96 165.458 129.406C168.292 128.747 170.561 128.447 172.81 128.447C175.177 128.447 177.514 128.786 180.464 129.406C180.533 128.96 180.61 128.515 180.698 128.07L181.886 122.039C181.604 121.236 180.99 120.558 180.153 120.229C178.341 119.523 176.257 119.203 173.482 119.126Z" fill="black"/>
<path d="M181.867 122.039L180.679 128.07C180.591 128.515 180.513 128.961 180.445 129.406C174.709 128.186 171.252 128.06 165.448 129.406C165.38 128.961 165.302 128.515 165.214 128.07L164.026 122.039C164.309 121.236 164.922 120.558 165.76 120.229C167.552 119.523 169.626 119.213 172.401 119.136H173.472C176.248 119.213 178.332 119.532 180.114 120.239C180.971 120.558 181.584 121.236 181.867 122.039Z" fill="#4B545A"/>
<path d="M181.867 122.039L180.679 128.07C180.591 128.515 180.513 128.961 180.445 129.406C174.709 128.186 171.252 128.06 165.448 129.406C165.38 128.961 165.302 128.515 165.214 128.07L164.026 122.039C164.309 121.236 164.922 120.558 165.76 120.229C167.552 119.523 169.626 119.213 172.401 119.136H173.472C176.248 119.213 178.332 119.532 180.114 120.239C180.971 120.558 181.584 121.236 181.867 122.039Z" fill="#4388FC" fill-opacity="0.1"/>
<path d="M181.867 122.039L180.679 128.07C180.591 128.515 180.513 128.961 180.445 129.406C174.709 128.186 171.252 128.06 165.448 129.406C165.38 128.961 165.302 128.515 165.214 128.07L164.026 122.039C164.309 121.236 164.922 120.558 165.76 120.229C167.552 119.523 169.626 119.213 172.401 119.136H173.472C176.248 119.213 178.332 119.532 180.114 120.239C180.971 120.558 181.584 121.236 181.867 122.039Z" fill="url(#paint7_radial_1:122)" fill-opacity="0.77"/>
<path d="M181.974 121.488C182.256 120.065 181.487 118.642 180.133 118.109C178.342 117.403 176.267 117.093 173.492 117.006H172.421C169.645 117.083 167.561 117.403 165.779 118.1C164.426 118.632 163.656 120.055 163.939 121.478L164.046 122.03C164.328 121.226 164.942 120.549 165.779 120.22C167.571 119.513 169.645 119.203 172.421 119.126H173.492C176.267 119.203 178.351 119.523 180.133 120.229C180.971 120.558 181.594 121.236 181.867 122.039L181.974 121.488Z" fill="#4B545A"/>
<path d="M178.264 107.268C178.264 107.278 178.225 107.297 178.118 107.297H167.892C167.785 107.297 167.746 107.268 167.746 107.268C167.746 107.258 167.766 107.2 167.883 107.123L167.97 107.065C168.486 106.707 168.866 106.445 169.499 106.193C170.132 106.097 170.804 106.039 171.525 106.01H174.475C175.196 106.039 175.868 106.097 176.501 106.193C176.501 106.193 176.501 106.193 176.511 106.193C177.144 106.445 177.523 106.707 178.04 107.065L178.127 107.123C178.244 107.2 178.264 107.258 178.264 107.268Z" fill="#4B545A"/>
<path d="M165.019 145.881H180.99C180.99 145.881 181.119 147.019 180.455 148.252C178.994 150.963 166.626 150.817 165.506 148.252C164.946 146.969 165.019 145.881 165.019 145.881Z" fill="#F2F2F2"/>
</g>
<defs>
<filter id="filter0_d_1:122" x="156" y="106" width="34" height="60" filterUnits="userSpaceOnUse" color-interpolation-filters="sRGB">
<feFlood flood-opacity="0" result="BackgroundImageFix"/>
<feColorMatrix in="SourceAlpha" type="matrix" values="0 0 0 0 0 0 0 0 0 0 0 0 0 0 0 0 0 0 127 0" result="hardAlpha"/>
<feOffset dy="4"/>
<feGaussianBlur stdDeviation="2"/>
<feColorMatrix type="matrix" values="0 0 0 0 0 0 0 0 0 0 0 0 0 0 0 0 0 0 0.3 0"/>
<feBlend mode="normal" in2="BackgroundImageFix" result="effect1_dropShadow_1:122"/>
<feBlend mode="normal" in="SourceGraphic" in2="effect1_dropShadow_1:122" result="shape"/>
</filter>
<radialGradient id="paint0_radial_1:122" cx="0" cy="0" r="1" gradientUnits="userSpaceOnUse" gradientTransform="translate(173.443 146.558) rotate(90) scale(8.27624 27.5113)">
<stop stop-color="white" stop-opacity="0.8"/>
<stop offset="1" stop-color="white" stop-opacity="0.01"/>
</radialGradient>
<radialGradient id="paint1_radial_1:122" cx="0" cy="0" r="1" gradientUnits="userSpaceOnUse" gradientTransform="translate(164.004 149.991) rotate(90.0336) scale(28.3444 3.62414)">
<stop stop-color="white" stop-opacity="0.8"/>
<stop offset="1" stop-color="white" stop-opacity="0.01"/>
</radialGradient>
<radialGradient id="paint2_radial_1:122" cx="0" cy="0" r="1" gradientUnits="userSpaceOnUse" gradientTransform="translate(182.037 149.991) rotate(90.0336) scale(28.3444 3.63118)">
<stop stop-color="white" stop-opacity="0.8"/>
<stop offset="1" stop-color="white" stop-opacity="0.01"/>
</radialGradient>
<linearGradient id="paint3_linear_1:122" x1="163.116" y1="110.293" x2="166.923" y2="110.293" gradientUnits="userSpaceOnUse">
<stop offset="0.1548" stop-color="#A1A1A1"/>
<stop offset="0.9205" stop-color="white"/>
</linearGradient>
<linearGradient id="paint4_linear_1:122" x1="163.116" y1="110.293" x2="166.923" y2="110.293" gradientUnits="userSpaceOnUse">
<stop stop-color="#333333"/>
<stop offset="0.1883"/>
<stop offset="0.3849" stop-color="#333333"/>
<stop offset="0.5983"/>
<stop offset="0.8033" stop-color="#333333"/>
<stop offset="1"/>
</linearGradient>
<linearGradient id="paint5_linear_1:122" x1="182.802" y1="110.293" x2="178.996" y2="110.293" gradientUnits="userSpaceOnUse">
<stop offset="0.1548" stop-color="#A1A1A1"/>
<stop offset="0.9205" stop-color="white"/>
</linearGradient>
<linearGradient id="paint6_linear_1:122" x1="182.802" y1="110.293" x2="178.996" y2="110.293" gradientUnits="userSpaceOnUse">
<stop stop-color="#333333"/>
<stop offset="0.1883"/>
<stop offset="0.3849" stop-color="#333333"/>
<stop offset="0.5983"/>
<stop offset="0.8033" stop-color="#333333"/>
<stop offset="1"/>
</linearGradient>
<radialGradient id="paint7_radial_1:122" cx="0" cy="0" r="1" gradientUnits="userSpaceOnUse" gradientTransform="translate(173.075 130.209) rotate(90.6579) scale(11.2263 28.1248)">
<stop stop-color="white" stop-opacity="0.8"/>
<stop offset="1" stop-color="white" stop-opacity="0.01"/>
</radialGradient>
</defs>
</svg>
