<svg width="91" height="64" viewBox="0 0 91 64" fill="none" xmlns="http://www.w3.org/2000/svg">
<rect x="40.9998" y="9.5" width="40" height="40" fill="white" fill-opacity="0.01"/>
<g filter="url(#filter0_d_1:306)">
<path d="M70.9998 29.5C70.9998 35.0228 66.5226 39.5 60.9998 39.5C55.4769 39.5 50.9998 35.0228 50.9998 29.5C50.9998 23.9772 55.4769 19.5 60.9998 19.5C66.5226 19.5 70.9998 23.9772 70.9998 29.5Z" fill="white"/>
</g>
<g filter="url(#filter1_d_1:306)">
<path fill-rule="evenodd" clip-rule="evenodd" d="M72.9998 29.5C72.9998 36.1274 67.6272 41.5 60.9998 41.5C54.3723 41.5 48.9998 36.1274 48.9998 29.5C48.9998 22.8726 54.3723 17.5 60.9998 17.5C67.6272 17.5 72.9998 22.8726 72.9998 29.5ZM60.9998 39.5C66.5226 39.5 70.9998 35.0228 70.9998 29.5C70.9998 23.9772 66.5226 19.5 60.9998 19.5C55.4769 19.5 50.9998 23.9772 50.9998 29.5C50.9998 35.0228 55.4769 39.5 60.9998 39.5Z" fill="white"/>
</g>
<path fill-rule="evenodd" clip-rule="evenodd" d="M70.7562 27.2966C69.7527 22.8339 65.7656 19.5 60.9998 19.5C55.4769 19.5 50.9998 23.9772 50.9998 29.5C50.9998 35.0228 55.4769 39.5 60.9998 39.5C65.7656 39.5 69.7527 36.1661 70.7562 31.7034V27.2966Z" fill="#4B545A"/>
<path fill-rule="evenodd" clip-rule="evenodd" d="M51.0774 28.2479C51.3043 26.4313 52.0185 24.7661 53.0849 23.3873C53.8342 23.5862 54.6264 23.685 55.4809 23.685C55.5817 23.685 55.6825 23.678 55.7833 23.6711C55.8589 23.6659 55.9345 23.6607 56.0101 23.6585H56.0153V28.9348C53.7758 28.9348 51.7443 28.4315 51.0774 28.2479Z" fill="white"/>
<path fill-rule="evenodd" clip-rule="evenodd" d="M56.0159 34.2182V28.9366C58.3064 28.9366 60.9332 28.2491 61.1668 28.1879C61.1776 28.1851 61.1833 28.1836 61.1835 28.1836V33.4652C61.1835 33.4652 58.2313 34.2182 56.0159 34.2182Z" fill="white"/>
<path fill-rule="evenodd" clip-rule="evenodd" d="M61.1674 39.4986C61.1116 39.4995 61.0558 39.5 60.9998 39.5C60.1889 39.5 59.4005 39.4035 58.6456 39.2213C59.9616 39.0156 61.0072 38.7419 61.1506 38.7044C61.1615 38.7016 61.1672 38.7001 61.1674 38.7001V39.4986Z" fill="white"/>
<path fill-rule="evenodd" clip-rule="evenodd" d="M61.1674 19.5014C61.1117 19.5005 61.0558 19.5 60.9998 19.5C59.1783 19.5 57.4706 19.987 55.9998 20.8378V23.5346C58.2152 23.5346 61.1674 22.7816 61.1674 22.7816V19.5014Z" fill="white"/>
<path d="M66.3466 22.1323C66.2739 22.1323 66.2117 22.1217 66.139 22.1217C64.4632 22.1217 62.8029 22.4558 61.1841 22.8111V28.1882C61.1841 28.1882 62.7821 27.4352 66.3518 27.4352V22.1323H66.3466Z" fill="white"/>
<path fill-rule="evenodd" clip-rule="evenodd" d="M56.0107 38.1685C54.2507 37.1533 52.8288 35.6176 51.9554 33.7716C52.8665 33.9799 54.2846 34.2177 56.0107 34.2177V38.1685Z" fill="white"/>
<path d="M61.1758 38.6773C62.8828 38.3008 64.5068 37.9561 66.1308 37.9561C66.2034 37.9561 66.2709 37.9667 66.3383 37.9667V32.7063C63.0177 32.7063 61.1707 33.4593 61.1707 33.4593V38.6773H61.1758Z" fill="white"/>
<path fill-rule="evenodd" clip-rule="evenodd" d="M70.2637 33.2725C69.3502 33.0032 67.9805 32.7106 66.3389 32.7106V27.429C68.3779 27.429 69.9189 27.8267 70.7646 28.113V31.6658C70.6422 32.22 70.4739 32.757 70.2637 33.2725Z" fill="white"/>
<path fill-rule="evenodd" clip-rule="evenodd" d="M67.9086 22.2703C67.4215 22.2153 66.8958 22.1817 66.3389 22.1817V21.0431C66.9028 21.3998 67.4285 21.8114 67.9086 22.2703Z" fill="white"/>
<g filter="url(#filter2_d_1:306)">
<path d="M49.8206 26.2402L51.495 25.4252C53.0029 24.6891 54.3069 23.5842 55.2277 22.1841C56.9048 19.6199 56.8817 16.8917 55.5972 13.3871L54.4748 10.6583C52.9255 7.27312 51.0187 5.30913 48.0265 4.67606C46.3871 4.329 44.6831 4.46125 43.0936 4.99919L41.3303 5.59807C40.1906 5.9826 39.079 6.46087 38.0171 7.03453L37.7776 7.16465L9.81995 18.6638C8.2203 19.406 7.49208 20.053 6.36411 21.1277C4.54033 23.0045 4.3727 25.4216 6.57213 30.8453L7.36115 32.7637C9.6143 38.1653 11.443 39.7613 14.0505 39.8155C15.6082 39.7855 16.5772 39.7239 18.2398 39.1349L46.1885 27.6394L46.4503 27.5633C47.6011 27.2058 48.7275 26.7635 49.8206 26.2402ZM44.1261 26.2132L37.546 27.5192C37.1008 27.6075 36.6594 27.7049 36.2217 27.8112C35.1678 22.0426 33.9691 18.7976 30.517 13.9417C30.9029 13.7093 31.2851 13.4678 31.6635 13.2174L37.2583 9.51576C38.4669 8.71331 40.0755 8.88354 41.0827 9.93288C42.4178 11.3212 43.4933 13.1217 44.6207 15.659L45.0281 16.6497C46.0122 19.2459 46.5095 21.2947 46.5339 23.2117C46.5728 24.6804 45.5495 25.9331 44.1261 26.2132Z" fill="#F2F2F2"/>
<path d="M51.6756 7.61876L41.7449 10.703L41.7893 10.8111L51.8071 8.09116C51.7219 7.88402 51.65 7.73459 51.6756 7.61876Z" fill="#E7E7E7"/>
<path d="M55.7466 17.5166L46.5197 22.312L46.4753 22.2039L55.5114 17.0973C55.5929 17.2955 55.6469 17.4523 55.7466 17.5166Z" fill="#E7E7E7"/>
<path d="M18.8334 35.9213C17.7592 36.3631 16.8427 36.6032 16.0333 36.6202C16.0975 36.5728 16.1543 36.5073 16.2074 36.4328C15.916 36.4368 15.6387 36.4245 15.3705 36.4085C14.5151 36.3391 13.7329 35.9132 13.171 35.2598C12.2971 34.2293 11.6946 33.1715 10.9537 31.6756C10.7676 31.2994 10.603 30.9248 10.4437 30.5375L10.34 30.2853C10.1844 29.9071 10.0378 29.5251 9.91279 29.1448C9.38308 27.5516 9.06698 26.3759 8.95925 25.0198C8.8898 24.1638 9.15867 23.3162 9.71402 22.656C9.88967 22.4469 10.0817 22.2521 10.2968 22.0372C10.2283 22.0233 10.1635 22.0184 10.0897 22.0171C10.6642 21.4544 11.4628 20.9785 12.5102 20.5477C12.9667 20.3599 13.4434 20.1955 13.9274 20.0491L20.1877 35.2695C19.7391 35.5277 19.29 35.7335 18.8334 35.9213Z" fill="#4B545A"/>
<path d="M18.8334 35.9213C17.7592 36.3631 16.8427 36.6032 16.0333 36.6202C16.0975 36.5728 16.1543 36.5073 16.2074 36.4328C15.916 36.4368 15.6387 36.4245 15.3705 36.4085C14.5151 36.3391 13.7329 35.9132 13.171 35.2598C12.2971 34.2293 11.6946 33.1715 10.9537 31.6756C10.7676 31.2994 10.603 30.9248 10.4437 30.5375L10.34 30.2853C10.1844 29.9071 10.0378 29.5251 9.91279 29.1448C9.38308 27.5516 9.06698 26.3759 8.95925 25.0198C8.8898 24.1638 9.15867 23.3162 9.71402 22.656C9.88967 22.4469 10.0817 22.2521 10.2968 22.0372C10.2283 22.0233 10.1635 22.0184 10.0897 22.0171C10.6642 21.4544 11.4628 20.9785 12.5102 20.5477C12.9667 20.3599 13.4434 20.1955 13.9274 20.0491L20.1877 35.2695C19.7391 35.5277 19.29 35.7335 18.8334 35.9213Z" fill="#4388FC" fill-opacity="0.1"/>
<path d="M18.8334 35.9213C17.7592 36.3631 16.8427 36.6032 16.0333 36.6202C16.0975 36.5728 16.1543 36.5073 16.2074 36.4328C15.916 36.4368 15.6387 36.4245 15.3705 36.4085C14.5151 36.3391 13.7329 35.9132 13.171 35.2598C12.2971 34.2293 11.6946 33.1715 10.9537 31.6756C10.7676 31.2994 10.603 30.9248 10.4437 30.5375L10.34 30.2853C10.1844 29.9071 10.0378 29.5251 9.91279 29.1448C9.38308 27.5516 9.06698 26.3759 8.95925 25.0198C8.8898 24.1638 9.15867 23.3162 9.71402 22.656C9.88967 22.4469 10.0817 22.2521 10.2968 22.0372C10.2283 22.0233 10.1635 22.0184 10.0897 22.0171C10.6642 21.4544 11.4628 20.9785 12.5102 20.5477C12.9667 20.3599 13.4434 20.1955 13.9274 20.0491L20.1877 35.2695C19.7391 35.5277 19.29 35.7335 18.8334 35.9213Z" fill="url(#paint0_radial_1:306)" fill-opacity="0.77"/>
<path d="M16.3753 19.3582C15.5443 19.679 14.6864 20.0108 13.739 20.3794C13.6674 20.4088 13.5884 20.4203 13.5109 20.41C13.1614 20.3747 12.9741 20.1991 12.896 19.8311C12.8444 19.2731 13.1973 18.8332 13.9955 18.4838L36.2923 8.74437C36.3102 8.737 36.3281 8.72964 36.346 8.72227C36.3408 8.73496 36.3266 8.75133 36.3124 8.7677L35.9185 9.23508C35.8333 9.3333 35.7354 9.4262 35.6212 9.50477L32.0576 11.8339C29.5331 13.483 27.2219 14.76 24.9629 15.7313C21.5583 17.3528 19.1585 18.2872 16.3753 19.3582Z" fill="#4B545A"/>
<path d="M16.3753 19.3582C15.5443 19.679 14.6864 20.0107 13.739 20.3793C13.6674 20.4088 13.5884 20.4202 13.5109 20.41C13.1614 20.3747 12.9741 20.1991 12.896 19.8311C12.8444 19.2731 13.1973 18.8332 13.9955 18.4838L36.2923 8.74435C36.3102 8.73699 36.3281 8.72962 36.346 8.72226C36.3408 8.73495 36.3266 8.75132 36.3124 8.76769L35.9185 9.23506C35.8333 9.33329 35.7354 9.42618 35.6212 9.50475L32.0576 11.8339C29.5331 13.483 27.2219 14.76 24.9629 15.7313C21.5583 17.3528 19.1585 18.2872 16.3753 19.3582Z" fill="#4388FC" fill-opacity="0.1"/>
<path d="M16.3753 19.3582C15.5443 19.679 14.6864 20.0107 13.739 20.3793C13.6674 20.4088 13.5884 20.4202 13.5109 20.41C13.1614 20.3747 12.9741 20.1991 12.896 19.8311C12.8444 19.2731 13.1973 18.8332 13.9955 18.4838L36.2923 8.74435C36.3102 8.73699 36.3281 8.72962 36.346 8.72226C36.3408 8.73495 36.3266 8.75132 36.3124 8.76769L35.9185 9.23506C35.8333 9.33329 35.7354 9.42618 35.6212 9.50475L32.0576 11.8339C29.5331 13.483 27.2219 14.76 24.9629 15.7313C21.5583 17.3528 19.1585 18.2872 16.3753 19.3582Z" fill="url(#paint1_radial_1:306)" fill-opacity="0.77"/>
<path d="M22.8072 14.6384C22.7257 15.3563 22.7871 15.8365 23.0124 16.6388L24.3599 16.0214C24.4454 15.186 24.596 14.5344 24.9514 13.6933L22.8072 14.6384Z" fill="#4B545A"/>
<path d="M33.8573 10.662L33.7489 9.86414L36.296 8.75334C36.3139 8.74597 36.3318 8.73861 36.3497 8.73125C36.3444 8.74394 36.3302 8.76031 36.316 8.77668L35.9221 9.24405C35.8369 9.34227 35.7391 9.43517 35.6249 9.51374L33.8573 10.662Z" fill="#4B545A"/>
<path d="M22.4056 34.0204C21.5894 34.3772 20.7463 34.745 19.8138 35.1496C19.7421 35.1791 19.6779 35.2265 19.6301 35.2883C19.4066 35.5593 19.397 35.8159 19.6005 36.1324C19.9564 36.5651 20.5167 36.6295 21.3298 36.3161L44.0266 27.5494C44.0445 27.542 44.0624 27.5347 44.0803 27.5273C44.0676 27.522 44.046 27.5203 44.0244 27.5187L43.4157 27.4637C43.286 27.4539 43.1511 27.4567 43.0147 27.4812L38.822 28.3317C35.8678 28.9361 33.3269 29.6548 31.0382 30.554C27.496 31.7898 25.1369 32.8233 22.4056 34.0204Z" fill="#4B545A"/>
<path d="M22.4057 34.0204C21.5895 34.3771 20.7464 34.745 19.8139 35.1496C19.7423 35.179 19.6781 35.2265 19.6302 35.2883C19.4067 35.5592 19.3971 35.8159 19.6006 36.1324C19.9565 36.5651 20.5168 36.6295 21.3299 36.3161L44.0267 27.5494C44.0446 27.542 44.0625 27.5346 44.0804 27.5273C44.0677 27.5219 44.0461 27.5203 44.0245 27.5187L43.4158 27.4637C43.2861 27.4538 43.1512 27.4567 43.0148 27.4812L38.8221 28.3317C35.8679 28.9361 33.327 29.6547 31.0383 30.5539C27.4961 31.7898 25.137 32.8233 22.4057 34.0204Z" fill="#4388FC" fill-opacity="0.1"/>
<path d="M22.4057 34.0204C21.5895 34.3771 20.7464 34.745 19.8139 35.1496C19.7423 35.179 19.6781 35.2265 19.6302 35.2883C19.4067 35.5592 19.3971 35.8159 19.6006 36.1324C19.9565 36.5651 20.5168 36.6295 21.3299 36.3161L44.0267 27.5494C44.0446 27.542 44.0625 27.5346 44.0804 27.5273C44.0677 27.5219 44.0461 27.5203 44.0245 27.5187L43.4158 27.4637C43.2861 27.4538 43.1512 27.4567 43.0148 27.4812L38.8221 28.3317C35.8679 28.9361 33.327 29.6547 31.0383 30.5539C27.4961 31.7898 25.137 32.8233 22.4057 34.0204Z" fill="url(#paint2_radial_1:306)" fill-opacity="0.77"/>
<path d="M30.2882 32.8526C29.7252 32.3998 29.431 32.0153 29.0266 31.2866L30.4185 30.7773C31.0671 31.3108 31.6326 31.6679 32.4769 32.0156L30.2882 32.8526Z" fill="#4B545A"/>
<path d="M40.9381 27.9036L41.4224 28.5468L44.0139 27.544C44.0318 27.5367 44.0498 27.5293 44.0677 27.522C44.055 27.5166 44.0334 27.515 44.0118 27.5133L43.403 27.4584C43.2734 27.4485 43.1385 27.4513 43.002 27.4759L40.9381 27.9036Z" fill="#4B545A"/>
<path d="M35.1826 9.55876C34.99 9.70117 34.861 9.74371 34.6366 9.78337L34.3291 9.03586L34.8752 8.81125L35.1826 9.55876Z" fill="#594F4F"/>
<path d="M34.7749 8.99992L34.0192 9.30021C33.9387 9.33334 33.8448 9.30876 33.7846 9.23875L32.3399 7.55853C32.2961 7.50285 32.3023 7.41607 32.3575 7.37229C32.4449 7.30476 32.5412 7.23356 32.6718 7.16932C32.7576 7.1235 32.8508 7.09568 32.9224 7.06622C33.1178 7.00691 33.3265 7.00532 33.5179 7.06349C33.6877 7.12001 33.8686 7.20356 34.0523 7.3702C34.285 7.57983 34.5011 7.90161 34.6545 8.24917C34.7302 8.4076 34.8064 8.61842 34.8641 8.78422C34.9012 8.87428 34.8555 8.96678 34.7749 8.99992Z" fill="#594F4F"/>
<path d="M42.6611 27.7424C42.424 27.7767 42.3024 27.8373 42.115 27.967L42.4225 28.7145L42.9686 28.4899L42.6611 27.7424Z" fill="#594F4F"/>
<path d="M42.7562 28.4299L42.008 28.7482C41.9274 28.7813 41.878 28.8648 41.8845 28.9569L42.04 31.1674C42.0481 31.2378 42.1135 31.2951 42.1836 31.2873C42.2932 31.2738 42.4117 31.2567 42.5497 31.2104C42.6429 31.1826 42.7287 31.1368 42.8004 31.1073C42.981 31.012 43.1304 30.8663 43.2254 30.6903C43.3063 30.5307 43.3761 30.3441 43.3894 30.0964C43.4073 29.7837 43.3344 29.403 43.1989 29.0481C43.1412 28.8823 43.047 28.6788 42.9714 28.5204C42.9344 28.4303 42.8458 28.3931 42.7562 28.4299Z" fill="#594F4F"/>
<path d="M51.0756 7.07583C49.1391 5.65051 47.3466 5.13477 44.9721 5.4691L46.0463 5.02725C46.6819 4.76582 47.3796 4.73159 48.0334 4.94704C49.2978 5.37466 50.2325 5.91682 51.0756 7.07583Z" fill="url(#paint3_linear_1:306)"/>
<path d="M51.0756 7.07583C49.1391 5.65051 47.3466 5.13477 44.9721 5.4691L46.0463 5.02725C46.6819 4.76582 47.3796 4.73159 48.0334 4.94704C49.2978 5.37466 50.2325 5.91682 51.0756 7.07583Z" fill="url(#paint4_linear_1:306)"/>
<path d="M44.9849 5.47472L46.0502 5.03656C46.6858 4.77513 47.3834 4.74089 48.0372 4.95635C49.298 5.37496 50.2327 5.91712 51.0757 7.07613C49.1393 5.65082 47.3556 5.13139 44.9849 5.47472Z" fill="#D5E3F0"/>
<path d="M55.6689 18.2435C55.2957 20.6188 54.3848 22.2465 52.4622 23.6796L53.5365 23.2378C54.1721 22.9763 54.6919 22.5098 55.0049 21.8967C55.6063 20.7122 55.8853 19.6603 55.6689 18.2435Z" fill="url(#paint5_linear_1:306)"/>
<path d="M55.6689 18.2435C55.2957 20.6188 54.3848 22.2465 52.4622 23.6796L53.5365 23.2378C54.1721 22.9763 54.6919 22.5098 55.0049 21.8967C55.6063 20.7122 55.8853 19.6603 55.6689 18.2435Z" fill="url(#paint6_linear_1:306)"/>
<path d="M52.4711 23.676L53.5364 23.2378C54.172 22.9764 54.6918 22.5098 55.0048 21.8967C55.6151 20.7085 55.8942 19.6566 55.6778 18.2399C55.2956 20.6188 54.3936 22.2429 52.4711 23.676Z" fill="#D5E3F0"/>
<path d="M5.02994 25.7726C4.73484 23.6301 5.23524 22.2765 6.35148 21.1225C6.6824 20.8073 6.98492 20.525 7.27695 20.268L7.29732 20.4702C7.35752 21.1509 7.11889 21.8177 6.64967 22.3055C5.88534 23.0937 5.6566 23.6827 5.53374 25.1653C5.50842 25.46 5.30437 25.7019 5.02994 25.7726Z" fill="#D8394C"/>
<path d="M9.82698 37.4356C11.1247 39.1657 12.4327 39.7755 14.0379 39.8102C14.4947 39.8013 14.9084 39.7891 15.2967 39.7663L15.1689 39.6082C14.7327 39.0821 14.0941 38.7762 13.4174 38.7597C12.3197 38.7374 11.7427 38.4798 10.6123 37.5127C10.387 37.3211 10.0718 37.2928 9.82698 37.4356Z" fill="#D8394C"/>
<path d="M42.8476 17.5572C43.8576 20.2165 44.3148 22.2186 44.338 24.0307C44.3472 24.8167 44.0249 25.56 43.4572 26.0883L37.4945 27.2667C37.1373 27.3399 36.7712 27.4168 36.4178 27.499C35.8418 24.419 35.2404 22.2445 34.4292 20.2721C33.6068 18.2728 32.5026 16.3261 30.8724 14.0167C31.1814 13.8264 31.4994 13.6325 31.801 13.4242L36.871 10.0753C37.6461 10.0513 38.3981 10.3527 38.9445 10.9177C40.2067 12.2308 41.2779 13.9698 42.4401 16.5665L42.8476 17.5572ZM43.0804 17.4615L42.6729 16.4708C41.5455 13.9335 40.4574 12.1277 39.135 10.7446C38.512 10.0953 37.6483 9.77665 36.8015 9.83009L31.6673 13.2265C31.2889 13.4769 30.9067 13.7183 30.5208 13.9507C32.2075 16.3212 33.3481 18.3055 34.2038 20.3859C35.104 22.5744 35.6797 24.8647 36.2292 27.8293C36.6669 27.7229 37.1083 27.6256 37.5535 27.5373L43.5826 26.3421C44.2182 25.7753 44.6115 24.9502 44.5973 24.0504C44.5618 22.1065 44.0645 20.0577 43.0804 17.4615Z" fill="black"/>
<path d="M43.5751 26.3241L37.546 27.5193C37.1009 27.6077 36.6594 27.705 36.2217 27.8113C35.1678 22.0427 33.9692 18.7977 30.5171 13.9418C30.9029 13.7094 31.2851 13.4679 31.6636 13.2175L36.7888 9.82482C37.6393 9.78039 38.4993 10.09 39.1223 10.7394C40.4574 12.1277 41.5328 13.9282 42.6602 16.4655L43.0677 17.4562C44.0518 20.0524 44.5491 22.1012 44.5735 24.0182C44.604 24.9322 44.2107 25.7574 43.5751 26.3241Z" fill="#4B545A"/>
<path d="M43.5751 26.3241L37.546 27.5193C37.1009 27.6076 36.6594 27.705 36.2217 27.8113C35.1678 22.0427 33.9692 18.7977 30.5171 13.9418C30.9029 13.7094 31.2851 13.4679 31.6636 13.2175L36.7888 9.82481C37.6393 9.78038 38.4993 10.09 39.1223 10.7394C40.4574 12.1277 41.5328 13.9282 42.6602 16.4655L43.0677 17.4562C44.0518 20.0524 44.5491 22.1012 44.5735 24.0182C44.604 24.9322 44.2107 25.7573 43.5751 26.3241Z" fill="#4388FC" fill-opacity="0.1"/>
<path d="M43.5751 26.3241L37.546 27.5193C37.1009 27.6076 36.6594 27.705 36.2217 27.8113C35.1678 22.0427 33.9692 18.7977 30.5171 13.9418C30.9029 13.7094 31.2851 13.4679 31.6636 13.2175L36.7888 9.82481C37.6393 9.78038 38.4993 10.09 39.1223 10.7394C40.4574 12.1277 41.5328 13.9282 42.6602 16.4655L43.0677 17.4562C44.0518 20.0524 44.5491 22.1012 44.5735 24.0182C44.604 24.9322 44.2107 25.7573 43.5751 26.3241Z" fill="url(#paint7_radial_1:306)" fill-opacity="0.77"/>
<path d="M44.1262 26.2134C45.5495 25.9333 46.5729 24.6805 46.5503 23.2261C46.5223 21.3002 46.0197 19.2641 45.0446 16.6642L44.6371 15.6735C43.5097 13.1362 42.4216 11.3304 41.0992 9.94734C40.0919 8.898 38.4833 8.72778 37.2747 9.53022L36.8052 9.83917C37.6557 9.79474 38.5157 10.1044 39.1386 10.7537C40.4737 12.1421 41.5492 13.9426 42.6766 16.4799L43.084 17.4705C44.0681 20.0668 44.5654 22.1156 44.5898 24.0325C44.604 24.9322 44.2144 25.7664 43.5751 26.3242L44.1262 26.2134Z" fill="#4B545A"/>
<path d="M55.8656 17.373C55.8567 17.3767 55.8239 17.348 55.7832 17.2489L51.8937 7.79244C51.8529 7.69338 51.865 7.6463 51.865 7.6463C51.8739 7.64262 51.935 7.63854 52.0511 7.71716L52.1382 7.77612C52.6657 8.11721 53.0519 8.36904 53.5254 8.85871C53.8557 9.40729 54.165 10.0066 54.466 10.662L55.5884 13.3909C55.8357 14.0684 56.0376 14.7119 56.1888 15.3341C56.1888 15.3341 56.1888 15.3341 56.1925 15.3432C56.2006 16.0243 56.1033 16.4749 55.9684 17.0885L55.948 17.1917C55.9209 17.3292 55.8746 17.3693 55.8656 17.373Z" fill="#4B545A"/>
<path d="M15.1175 19.8123L21.1926 34.5825C21.1926 34.5825 20.1886 35.1348 18.7956 34.9892C15.7333 34.6693 11.1631 23.1762 13.1095 21.1647C14.083 20.1586 15.1175 19.8123 15.1175 19.8123Z" fill="#F2F2F2"/>
</g>
<defs>
<filter id="filter0_d_1:306" x="30.9998" y="3.5" width="60" height="60" filterUnits="userSpaceOnUse" color-interpolation-filters="sRGB">
<feFlood flood-opacity="0" result="BackgroundImageFix"/>
<feColorMatrix in="SourceAlpha" type="matrix" values="0 0 0 0 0 0 0 0 0 0 0 0 0 0 0 0 0 0 127 0" result="hardAlpha"/>
<feOffset dy="4"/>
<feGaussianBlur stdDeviation="10"/>
<feColorMatrix type="matrix" values="0 0 0 0 0 0 0 0 0 0 0 0 0 0 0 0 0 0 0.3 0"/>
<feBlend mode="normal" in2="BackgroundImageFix" result="effect1_dropShadow_1:306"/>
<feBlend mode="normal" in="SourceGraphic" in2="effect1_dropShadow_1:306" result="shape"/>
</filter>
<filter id="filter1_d_1:306" x="32.9998" y="5.5" width="56" height="56" filterUnits="userSpaceOnUse" color-interpolation-filters="sRGB">
<feFlood flood-opacity="0" result="BackgroundImageFix"/>
<feColorMatrix in="SourceAlpha" type="matrix" values="0 0 0 0 0 0 0 0 0 0 0 0 0 0 0 0 0 0 127 0" result="hardAlpha"/>
<feOffset dy="4"/>
<feGaussianBlur stdDeviation="8"/>
<feColorMatrix type="matrix" values="0 0 0 0 0 0 0 0 0 0 0 0 0 0 0 0 0 0 0.1 0"/>
<feBlend mode="normal" in2="BackgroundImageFix" result="effect1_dropShadow_1:306"/>
<feBlend mode="normal" in="SourceGraphic" in2="effect1_dropShadow_1:306" result="shape"/>
</filter>
<filter id="filter2_d_1:306" x="-2" y="0" width="65.9811" height="51.8257" filterUnits="userSpaceOnUse" color-interpolation-filters="sRGB">
<feFlood flood-opacity="0" result="BackgroundImageFix"/>
<feColorMatrix in="SourceAlpha" type="matrix" values="0 0 0 0 0 0 0 0 0 0 0 0 0 0 0 0 0 0 127 0" result="hardAlpha"/>
<feOffset dy="4"/>
<feGaussianBlur stdDeviation="2"/>
<feColorMatrix type="matrix" values="0 0 0 0 0 0 0 0 0 0 0 0 0 0 0 0 0 0 0.3 0"/>
<feBlend mode="normal" in2="BackgroundImageFix" result="effect1_dropShadow_1:306"/>
<feBlend mode="normal" in="SourceGraphic" in2="effect1_dropShadow_1:306" result="shape"/>
</filter>
<radialGradient id="paint0_radial_1:306" cx="0" cy="0" r="1" gradientUnits="userSpaceOnUse" gradientTransform="translate(17.695 27.8604) rotate(157.642) scale(8.27624 27.5113)">
<stop stop-color="white" stop-opacity="0.8"/>
<stop offset="1" stop-color="white" stop-opacity="0.01"/>
</radialGradient>
<radialGradient id="paint1_radial_1:306" cx="0" cy="0" r="1" gradientUnits="userSpaceOnUse" gradientTransform="translate(10.9305 20.4366) rotate(157.676) scale(28.3444 3.62414)">
<stop stop-color="white" stop-opacity="0.8"/>
<stop offset="1" stop-color="white" stop-opacity="0.01"/>
</radialGradient>
<radialGradient id="paint2_radial_1:306" cx="0" cy="0" r="1" gradientUnits="userSpaceOnUse" gradientTransform="translate(17.7896 37.1136) rotate(157.676) scale(28.3444 3.63118)">
<stop stop-color="white" stop-opacity="0.8"/>
<stop offset="1" stop-color="white" stop-opacity="0.01"/>
</radialGradient>
<linearGradient id="paint3_linear_1:306" x1="47.3066" y1="4.51502" x2="48.7545" y2="8.03541" gradientUnits="userSpaceOnUse">
<stop offset="0.1548" stop-color="#A1A1A1"/>
<stop offset="0.9205" stop-color="white"/>
</linearGradient>
<linearGradient id="paint4_linear_1:306" x1="47.3066" y1="4.51502" x2="48.7545" y2="8.03541" gradientUnits="userSpaceOnUse">
<stop stop-color="#333333"/>
<stop offset="0.1883"/>
<stop offset="0.3849" stop-color="#333333"/>
<stop offset="0.5983"/>
<stop offset="0.8033" stop-color="#333333"/>
<stop offset="1"/>
</linearGradient>
<linearGradient id="paint5_linear_1:306" x1="54.7949" y1="22.7212" x2="53.347" y2="19.2008" gradientUnits="userSpaceOnUse">
<stop offset="0.1548" stop-color="#A1A1A1"/>
<stop offset="0.9205" stop-color="white"/>
</linearGradient>
<linearGradient id="paint6_linear_1:306" x1="54.7949" y1="22.7212" x2="53.347" y2="19.2008" gradientUnits="userSpaceOnUse">
<stop stop-color="#333333"/>
<stop offset="0.1883"/>
<stop offset="0.3849" stop-color="#333333"/>
<stop offset="0.5983"/>
<stop offset="0.8033" stop-color="#333333"/>
<stop offset="1"/>
</linearGradient>
<radialGradient id="paint7_radial_1:306" cx="0" cy="0" r="1" gradientUnits="userSpaceOnUse" gradientTransform="translate(32.6754 21.3014) rotate(158.3) scale(11.2263 28.1248)">
<stop stop-color="white" stop-opacity="0.8"/>
<stop offset="1" stop-color="white" stop-opacity="0.01"/>
</radialGradient>
</defs>
</svg>
