<svg width="16" height="16" viewBox="0 0 16 16" fill="none" xmlns="http://www.w3.org/2000/svg">
<path fill-rule="evenodd" clip-rule="evenodd" d="M7.5332 4C7.23645 4 6.96989 3.87074 6.78675 3.66545C5.01131 4.16136 3.67885 5.71878 3.51663 7.61041C3.80634 7.78556 4 8.10356 4 8.4668C4 8.76355 3.87074 9.03011 3.66545 9.21325C4.08721 10.7232 5.27678 11.9128 6.78675 12.3346C6.96989 12.1293 7.23645 12 7.5332 12C7.89644 12 8.21443 12.1937 8.38958 12.4834C10.2812 12.3212 11.8386 10.9887 12.3346 9.21325C12.1293 9.03011 12 8.76355 12 8.4668C12 8.10356 12.1937 7.78557 12.4834 7.61042C12.2969 5.43594 10.5641 3.7031 8.38959 3.51663C8.21444 3.80634 7.89644 4 7.5332 4ZM8.5332 14.4784C11.3796 14.2473 13.7075 12.1824 14.3338 9.4668H15C15.5523 9.4668 16 9.01908 16 8.4668C16 7.91451 15.5523 7.4668 15 7.4668H14.4784C14.2215 4.3022 11.6978 1.77849 8.5332 1.52156V1C8.5332 0.447715 8.08549 0 7.5332 0C6.98092 0 6.5332 0.447715 6.5332 1V1.66618C3.81756 2.29254 1.75266 4.62043 1.52156 7.4668H1C0.447715 7.4668 0 7.91451 0 8.4668C0 9.01908 0.447715 9.4668 1 9.4668H1.66618C2.22251 11.8788 4.12118 13.7775 6.5332 14.3338V15C6.5332 15.5523 6.98092 16 7.5332 16C8.08549 16 8.5332 15.5523 8.5332 15V14.4784ZM8 9.66667C8.92048 9.66667 9.66667 8.92048 9.66667 8C9.66667 7.07953 8.92048 6.33333 8 6.33333C7.07953 6.33333 6.33333 7.07953 6.33333 8C6.33333 8.92048 7.07953 9.66667 8 9.66667Z" fill="#0AC690"/>
</svg>
